
<svg xmlns="http://www.w3.org/2000/svg" viewBox="0 0 240 240">
  <defs>
    <linearGradient id="a" x1=".667" x2=".417" y1=".167" y2=".75">
      <stop offset="0" stop-color="#37aee2"/>
      <stop offset="1" stop-color="#1e96c8"/>
    </linearGradient>
    <linearGradient id="b" x1=".66" x2=".851" y1=".437" y2=".802">
      <stop offset="0" stop-color="#eff7fc"/>
      <stop offset="1" stop-color="#fff"/>
    </linearGradient>
  </defs>
  <circle cx="120" cy="120" r="120" fill="url(#a)"/>
  <path fill="#c8daea" d="M98 175c-3.9 0-3.2-1.5-4.6-5.2L82 132.2 152.8 88l8.3 2.2-6.9 18.8L98 175z"/>
  <path fill="#a9c9dd" d="M98 175c3 0 4.3-1.4 6-3 2.6-2.5 36-35 36-35l-20.5-5-19 12-2.5 30v1z"/>
  <path fill="url(#b)" d="M100 142.6l48.4 35.9c5.5 3 9.5 1.5 10.9-5.1L179 82.2c2-8.1-3.1-11.7-8.4-9.3L55 117.5c-7.9 3.2-7.8 7.6-1.4 9.5l29.7 9.3 68.8-43.2c3.2-2 6.2-.9 3.8 1.3"/>
  <path fill="#ef4444" d="M214.5 114a15 15 0 0 1-15 15h-30a15 15 0 0 1-15-15v-30a15 15 0 0 1 15-15h30a15 15 0 0 1 15 15v30Z"/>
  <path fill="#fff" d="M188.9 96.5a2.5 2.5 0 0 0-2.5-2.5h-22.8a2.5 2.5 0 0 0-2.5 2.5v19a2.5 2.5 0 0 0 2.5 2.5h22.8a2.5 2.5 0 0 0 2.5-2.5v-19Zm-25.3 0h22.8v19h-22.8v-19Zm19 11.4h-15.2v3.8h15.2v-3.8Zm0-7.6h-15.2v3.8h15.2v-3.8Z"/>
</svg>
